# xmcd
#
# Track frame offsets: 
#        150
#        94685
#        137045
#        179622
#        204102
#        243072
#
# Disc length: 3523 seconds
#
# Revision: 0
# Processed by: cddbd v1.5.2PL0 Copyright (c) Steve Scherf et al.
# Submitted via: ExactAudioCopy v0.95b4
#
DISCID=460dc106
DTITLE=Various Artist - Orchestra of Our Time
DYEAR=1995
DGENRE=Classical
TTITLE0=George Crumb, Night Music I
TTITLE1=Perre Boulez, Improvisation No. 2: 'Une dentelle s'abolit' 
TTITLE2=Perre Boulez, Eclat 
TTITLE3=Henri Pousseur, Trois Chants Sacrés
TTITLE4=Luicia Dlugoszewski, Fire Fragile Flight
TTITLE5=Luciano Berio - Kurt Weill, Surabaya Johnny
EXTD=
EXTT0=
EXTT1=
EXTT2=
EXTT3=
EXTT4=
EXTT5=
PLAYORDER=
